<?xml version="1.0" encoding="UTF-8"?>
<svg width="1064px" height="233px" viewBox="0 0 1064 233" version="1.1" xmlns="http://www.w3.org/2000/svg" xmlns:xlink="http://www.w3.org/1999/xlink">
    <!-- Generator: Sketch 59.1 (86144) - https://sketch.com -->
    <title>Artboard</title>
    <desc>Created with Sketch.</desc>
    <g id="Artboard" stroke="none" stroke-width="1" fill="none" fill-rule="evenodd">
        <g id="Group" transform="translate(-1.000000, -12.000000)" fill="#FFFFFF" fill-rule="nonzero">
            <path d="M7.39999655,167.600034 L7.11470768,168.512148 C6.30203651,171.233716 3.98665865,179.878011 3.25638925,192.180634 L3.2,193.2 C2.2,208.8 20.2,237.4 47.8,237.4 C75.4,237.4 100.2,229.4 102.4,192.4 C105.2,147.2 30.6,135.4 31,131.8 C31,130.4 62.6,120.4 86.2,120.4 C97,101.8 79.4,92 79.4,92 C72.866,92 7.526,96.9005 5.0554946,118.151028 L5,118.8 C5,118.8 2.8,118 1.8,135.4 C-0.2,170 86.6,175.6 85.6,193 C85,202.6 9.8,226 13.4,164.2 L12.4,161.8 L9.2,165.4 L8.97484914,166.69522 C8.40890108,170.0549 6.96049383,179.335802 6.8,187.2 L6.7857909,186.255896 C6.6433598,175.181828 7.39813549,167.618664 7.39999655,167.600034 Z M227.2,130.8 L227.17795,128.380917 C227.067765,112.489578 227.677647,105.345882 225.2,100.2 C220.6,91 200.6,93.8 192.6,98.8 L192.600926,99.4175926 C192.605556,100.477778 192.633333,101.7 192.8,103.2 L191.540756,105.73798 C185.42768,118.14498 172.43,145.686 162.2,173.4 L160.887111,168.391657 C156.587507,152.148721 150.019512,128.707317 142.8,103.8 C140,94.6 128.2,92.8 117.4,95 C109.2,93 101.2,95.8 101.2,95.8 C101.6,97.4 101.8,99.4 102,101.8 C102,101.8 101.8,102 101.6,102 C101.8,102.2 102,102.4 102,102.6 C104.8,132.4 100.6,213.4 98.2,238 C99.4,238 100.6,233.6 102.2,232.8 C104,232 107.2,234.6 107.2,234.6 L108.8,231.4 L114,229.8 L121.6,216.4 L124.2,216.8 L124.893306,212.450346 C126.13544,204.45728 128.832,186.2 131.2,164 L133.315274,169.060948 C140.896886,187.283634 147.805634,204.729577 152.2,214.8 C153.982,232.62 172.4257,226.13352 174.152814,221.926753 L175.423032,218.497256 C181.842509,201.083408 191.218462,174.483077 197.6,154.4 C201.8,185.4 209.2,220.6 220,240.2 C220.5625,240.0125 220.421875,238.41875 220.896484,238.055469 L221,238 C222,237.4 224.2,237.8 224.2,237.8 L224.6,233.2 L227.2,232.8 L228.8,226.8 L229.6,221.8 L231.6,221.4 L233.6,214.2 L233.245625,211.669425 C231.977,202.3275 227.71,168.37 227.2,130.8 Z M235.8,211.4 C256.8,199.2 303.8,203.4 310,214.2 C310.2,214.6 309,214.2 309,214.2 L311.6,217.4 L310,217.8 L310.362035,218.315994 C311.187812,219.519668 313.115789,222.494737 312.8,223.6 L311.893961,226.937376 C311.277789,229.239463 310.6,231.8 310.6,231.8 L308.8,230.8 C287.4,227.8 264.6,233.6 248,239 C234,243.6 230,224.4 235.8,211.4 Z M268.517491,110.579373 C268.720891,112.096566 268.330261,114.449043 266.4,114.8 L264.66296,117.842825 C261.814876,122.907438 258.2,130.345455 258.2,141.8 C258.2,164.4 269.8,171.8 272,172 C275.8,172.4 286.8,162 286.8,138.8 C286.8,109.4 268.6,110.6 268.6,110.6 L268.517491,110.579373 L268.517491,110.579373 Z M268.4,110 L268.4403,110.155094 L268.4403,110.155094 L268.648264,110.054476 C269.136707,109.802155 269.614982,109.429963 269.4,109 C269.2,108.8 268,108 268,107.6 L268.128807,107.221731 C268.381474,106.531191 268.913043,105.46087 270.4,104.8 C280.6,100.2 310.8,108.8 310.8,145.4 C310.8,175 295.6,200 272.4,199.6 C246.2,199.2 231.2,165 231.2,147.6 C231.2,119.6 246,101.4 248.2,100.4 C256.6,96.6 267.6,106 268.4,110 Z M398.799988,235.800022 L398.971434,235.978918 C399.178992,236.201366 399.533789,236.600683 399.8,237 C402.122171,229.701747 397.153489,210.710615 395.390021,204.441369 L394.800024,202.400042 C394.815913,202.427359 402.599388,215.819188 402,234.6 C407.4,214.6 392.8,178.2 377.2,162.6 L378.307699,161.587178 C392.845877,148.181344 405.483951,132.034568 408.8,117.6 C411.8,105.4 385.8,89.4 379.8,100 C372.6,129 354.8,148.4 343,158.4 L343.296875,151.315625 C343.5875,144.2 343.85,137 344,129.8 C345,94.6 321.6,97.4 313.2,99.8 C311,100.2 310.2,102 310.2,102.8 C315.2,125.4 316,234.4 317.6,242.4 C318.4,242.4 319,240.2 320,239.6 C320.4,239.4 322,240.6 322,240.6 L324.4,236.6 L326,236.6 L326.332781,235.802919 C326.772652,234.759334 327.524138,233.013793 327.8,232.6 C329.2,231 331.8,230.2 331.8,230.2 L332.222908,229.226391 C333.059074,227.329395 334.934783,223.217391 336,222 L336.643347,220.852949 C338.293827,217.938272 339.4,216.2 339.4,216.2 L339.912023,209.726778 C340.295833,204.666146 340.847917,196.964583 341.4,187.8 C345.8,185.8 350.6,182.8 355.6,179.6 C366,191.8 383.2,221.2 387.8,239.2 L389.6,241.2 L390.740741,240.940741 C392.088889,240.644444 394.266667,240.2 395.2,240.2 C396.598129,240.000267 398.79412,235.811221 398.799988,235.800022 Z M431.6,199.6 L432.000112,197.037382 C432.768494,191.990815 433.755556,184.751111 434.6,175.8 L437.080023,175.194227 C446.342015,172.89559 455.69863,170.2 456.8,170.2 L457.326323,170.004072 C460.406805,168.819009 466.8,165.8 466.8,165.8 L468.2,163.4 L475.4,161.6 L475.2,159.6 L481.8,155.4 L479.2,155.2 L485.4,151.8 L486.2,147 L486.498102,146.415868 C486.960999,145.481807 487.8,143.668966 487.8,142.8 L486.833514,142.786128 C475.739761,142.670405 454.689855,143.863768 437.6,146 L437.923216,142.064613 C438.203306,138.552066 438.454545,134.981818 438.6,131.2 C438.6,129.6 438.8,128 438.8,126.4 L470.924629,121.221904 C474.87736,120.59304 477.46,120.2 477.8,120.2 L478.09348,120.094263 C479.949604,119.396418 487,116.4 487,116.4 L487.2,114 L493.8,110.6 L489.8,110.4 L491.209862,109.402093 C492.423875,108.535354 494.036364,107.363636 494.4,107 C497,104.2 500.6,102.6 500.6,102.6 L500.573791,101.947347 C500.536733,100.798543 500.503226,98.4387097 500.8,97.4 L489.5232,97.2208 C470.464,96.952 437.76,96.76 420.8,99 C412.8,98.2 405,101.4 405,101.4 C408.6,114.2 407.6,174.4 407.6,208.6 C405.8,209.2 404.4,209.8 403.4,210.4 C393.4,215.6 404.8,241.8 411,238.8 C451.2,219.2 493.6,209.8 495.6,209.8 C498.2,208.8 499.2,206 502.6,203.4 C505.8,200.8 511.4,198.6 511.4,198.6 L505.8,198 L513.4,194.4 L514.4,192 L514.904835,191.505017 C515.938612,190.469224 518.2,188.08 518.2,187 C495.2,182.6 458.6,190.8 431.6,199.6 Z M502.399996,170.400037 L502.177983,171.10208 C501.429939,173.563373 499.006638,182.341377 498.256387,194.980666 L498.2,196 C497.2,211.6 515.2,240.2 542.8,240.2 C570.4,240.2 595.2,232.2 597.4,195.2 C600.2,150 525.6,138.2 526,134.6 C526,133.2 557.6,123.2 581.2,123.2 C592,104.6 574.4,94.8 574.4,94.8 L573.933003,94.8060944 C565.251658,95.0046728 502.476091,100.129804 500.055495,120.951028 L500,121.6 C500,121.6 497.8,120.8 496.8,138.2 C494.8,172.8 581.6,178.4 580.6,195.8 C580,205.4 504.8,228.8 508.4,167 L507.4,164.6 L504.2,168.2 L503.974849,169.49522 C503.408901,172.8549 501.960494,182.135802 501.8,190 L501.785791,189.055934 C501.643364,177.982311 502.398072,170.4193 502.399996,170.400037 Z M692.2,178.6 C693.6,170.4 690.2,153 682,152 C664.6,149.6 626.8,156 613.4,157.6 C613.6,158.4 614.4,158.8 615.8,159.2 L616.104497,159.170348 C618.526626,158.884343 634.145263,156.637895 645.2,157.2 L640.417761,157.902731 C625.745793,160.098452 618.227558,161.620763 618.584567,162.181061 L619.186618,162.945152 C624.155325,169.207101 631.115385,176.692308 639,179 L639.187744,179.006907 C641.867,179.15456 665.438,181.63 679.6,182.6 C671.8,193 657.6,204 640.8,204 C619.416,204 604.10862,186.55422 604.38679,173.979537 L604.4,173.6 C605.2,148.8 631.6,119.4 663.4,135.6 C669.8,133 674.4,119.2 674.6,110.4 C675.2,84.8 591,94 588.4,170.6 C587,214.4 615.2,234.4 642.2,234.4 C673.8,234.4 695.4,209.6 692.2,178.6 Z M691.8,96.4 C689.874074,96.7851852 688.875446,98.4685871 688.982706,99.3071178 L689,99.4 C693.6,123.2 693,235.8 694.4,244.2 C695.2,244.2 697,242 697,242 L698.6,236.6 L700.2,238 L703.6,233.4 L709.4,230 L712,222.6 L714.4,222 L715.4,217 L716.8,218.8 L717.532243,209.924661 C718.80824,194.01472 721.416,159.436 722.6,128.8 C723.8,91.8 700.6,94.2 691.8,96.4 Z M832,103.6 C832,102.2 829.6,104.8 829.6,104.8 L829.996115,102.555909 C830.393284,100.229926 830.928889,96.8444444 830.8,96.2 C830,93.4 827.4,92.4 827.4,92.4 L827.27506,90.8442962 C827.125714,89.1242449 826.862857,86.5257143 826.6,86 C826,85.2 824.4,86.6 823.8,86.2 C822.6,85 822.8,82.6 821.8,83 C802.4,113.8 786.4,146 771,187.2 C768.4,170.2 761.4,147.2 756.6,126.2 C745,76 708.2,101.8 708.2,101.8 C725,115 748.4,214.8 752,227.4 C752.8,229.2 755,228.6 757.8,226.8 C759.2,235.8 768.4,238.6 793,234.6 C800.8,178.8 827.2,123.6 831.8,111.4 C832.2,109 832.4,106.4 832,103.6 Z M826.8,96.4 C824.874074,96.7851852 823.875446,98.4685871 823.982706,99.3071178 L824,99.4 C828.6,123.2 828,235.8 829.4,244.2 C830.2,244.2 832,242 832,242 L833.6,236.6 L835.2,238 L838.6,233.4 L844.4,230 L847,222.6 L849.4,222 L850.4,217 L851.8,218.8 L852.532243,209.924661 C853.80824,194.01472 856.416,159.436 857.6,128.8 C858.8,91.8 835.6,94.2 826.8,96.4 Z M963,118.2 C962.8,117.4 962.6,116.8 962.4,116.2 L962.165016,115.461313 C959.136752,106.103879 954.2,96.8 954.2,96.8 L954.080533,96.8360296 C953.581333,96.9777778 951.64,97.44 950.6,96.4 C950,95.4 948.6,88.6 948,88 C947.6,87.6 946.8,90.8 946.4,90.4 C945.8,89.8 945.6,85.8 945,85.2 C941.4,98.4 935.8,146.8 933.2,184.6 L930.184721,177.797112 C921.326531,157.745408 908.75,128.6 900,103.6 C895.2,90.4 879.8,89.4 868.8,94.4 C864,94.8 860.6,96.2 860.6,96.2 C865.4,113.8 862.8,234.2 864.2,242.8 C865.2,241.4 865.8,240.8 866.6,240.4 C867.8,239.8 870.2,239.8 870.2,239.8 L873,232.4 L875.4,234.6 L877.8,227.6 L880.8,226 L885.8,215.4 L887,216 L887.791213,208.566906 C888.98708,197.0398 891.296,173.624 893,149.2 L895.822395,154.864258 C907.672977,178.712757 920.622222,205.4 933.4,225.4 C939,248.8 960.8,238.8 963.6,230.8 C965.6,224.8 957.4,219.8 963,118.2 Z M1064,178.6 C1067.2,209.6 1045.6,234.4 1014,234.4 C987,234.4 958.8,214.4 960.2,170.6 C962.8,94 1047,84.8 1046.4,110.4 L1046.37512,111.104829 C1045.95665,119.91856 1041.43158,133.068421 1035.2,135.6 C1003.718,119.562 977.52854,148.21656 976.23166,172.85467 L976.2,173.6 C975.6,186.2 991,204 1012.6,204 C1029.4,204 1043.6,193 1051.4,182.6 L1048.67117,182.403627 C1033.93152,181.29736 1012.116,179 1010.8,179 C1002.75769,176.646154 995.677293,168.905621 990.690894,162.570955 L990.4,162.2 C989.8,161.6 999,159.8 1017,157.2 L1016.24802,157.166306 C1004.49148,156.708321 988.187368,159.2 987.6,159.2 C986.2,158.8 985.4,158.4 985.2,157.6 L986.47067,157.443407 C1000.84964,155.62392 1036.922,149.672 1053.8,152 C1062,153 1065.4,170.4 1064,178.6 Z" id="Smokesgiving"></path>
            <path d="M287.849999,31.1500106 L287.733869,31.5315662 C287.503034,32.3398667 286.993701,34.3856553 286.818677,37.2195413 L286.8,37.55 C286.55,41.45 291.05,48.6 297.95,48.6 L298.493192,48.5957492 C305.172403,48.4897161 311.064474,46.3565789 311.6,37.35 C312.3,26.05 293.65,23.1 293.75,22.2 C293.75,21.85 301.65,19.35 307.55,19.35 C310.25,14.7 305.85,12.25 305.85,12.25 L305.686594,12.2527226 C303.355996,12.3187365 287.971855,13.6092495 287.270646,18.734233 L287.25,18.95 C287.25,18.95 286.7,18.75 286.45,23.1 C285.95,31.75 307.65,33.15 307.4,37.5 C307.25,39.9 288.45,45.75 289.35,30.3 L289.1,29.7 L288.3,30.6 L288.170911,31.3705688 C288.005078,32.4212891 287.734375,34.365625 287.7,36.05 C287.650066,33.1538491 287.84947,31.1553107 287.849999,31.1500106 Z M342.806404,22.3743656 L342.793419,21.1771141 C342.77112,17.3217172 342.910606,15.5681818 342.3,14.3 C341.15,12 336.15,12.7 334.15,13.95 L334.151852,14.2685185 C334.155556,14.4944444 334.166667,14.75 334.2,15.05 L333.610631,16.2447114 C331.992607,19.5629946 328.963265,26.0622449 326.55,32.6 L326.122168,30.9725586 C325.046875,26.9304687 323.45,21.2375 321.7,15.2 C321,12.9 318.05,12.45 315.35,13 C313.3,12.5 311.3,13.2 311.3,13.2 C311.4,13.6 311.45,14.1 311.5,14.7 L311.46875,14.725 C311.45,14.7375 311.425,14.75 311.4,14.75 C311.45,14.8 311.5,14.85 311.5,14.9 C312.2,22.35 311.15,42.6 310.55,48.75 C310.85,48.75 311.15,47.65 311.55,47.45 C312,47.25 312.8,47.9 312.8,47.9 L313.2,47.1 L314.5,46.7 L316.4,43.35 L317.05,43.45 L317.317172,41.7520537 C317.656317,39.5223543 318.262069,35.2931034 318.8,30.25 L320.0372,33.2268 C321.65,37.142 323.09,40.75 324.05,42.95 C324.5,47.45 329.2,45.75 329.55,44.7 L330.28863,42.6934402 C331.861224,38.3806122 333.942857,32.4357143 335.4,27.85 L335.567857,29.0499241 C336.641979,36.4923077 338.438462,44.6512821 341,49.3 C341.15,49.25 341.1,48.8 341.25,48.75 C341.5,48.6 342.05,48.7 342.05,48.7 L342.15,47.55 L342.8,47.45 L343.2,45.95 L343.4,44.7 L343.9,44.6 L344.4,42.8 L344.221838,41.4919692 C343.836129,38.5183878 342.947082,30.8486298 342.806404,22.3743656 L342.806404,22.3743656 Z M344.95,42.1 C350.2,39.05 361.95,40.1 363.5,42.8 C363.55,42.9 363.25,42.8 363.25,42.8 L363.9,43.6 L363.5,43.7 L363.682495,43.9658081 C363.912109,44.3142578 364.26875,44.909375 364.2,45.15 L363.65,47.2 L363.65,47.2 L363.2,46.95 C357.85,46.2 352.15,47.65 348,49 C344.5,50.15 343.5,45.35 344.95,42.1 Z M353.129373,16.8948432 C353.180223,17.2741416 353.082565,17.8622609 352.6,17.95 L352.174207,18.695661 C351.460906,19.9621173 350.55,21.825 350.55,24.7 C350.55,30.35 353.45,32.2 354,32.25 C354.95,32.35 357.7,29.75 357.7,23.95 C357.7,16.6 353.15,16.9 353.15,16.9 L353.129373,16.8948432 L353.129373,16.8948432 Z M353.110075,16.7887736 C353.246477,16.7268291 353.411423,16.6228466 353.35,16.5 L353.191254,16.3727405 C353.097959,16.2969388 353,16.2071429 353,16.15 L353.0384,16.0388 C353.104,15.866 353.24,15.61 353.6,15.45 C356.15,14.3 363.7,16.45 363.7,25.6 C363.7,33 359.9,39.25 354.1,39.15 C347.55,39.05 343.8,30.5 343.8,26.15 C343.8,19.15 347.5,14.6 348.05,14.35 C350.093243,13.4256757 352.751826,15.6253835 353.078259,16.6660524 L353.110075,16.7887736 L353.110075,16.7887736 Z M385.697988,48.203814 L385.711701,48.2119362 L385.787671,48.293942 C385.837642,48.3501706 385.900057,48.4250853 385.95,48.5 C386.573344,46.5409178 385.095303,41.2116883 384.764112,40.0679941 L384.700009,39.8500156 L384.833389,40.0995161 C385.270691,40.9575565 386.625979,43.9526567 386.5,47.9 C387.85,42.9 384.2,33.8 380.3,29.9 C384.05,26.5 387.35,22.35 388.2,18.65 C388.95,15.6 382.45,11.6 380.95,14.25 C379.15,21.5 374.7,26.35 371.75,28.85 C371.85,26.5 371.95,24.1 372,21.7 C372.25,12.9 366.4,13.6 364.3,14.2 C363.75,14.3 363.55,14.75 363.55,14.95 C364.8,20.6 365,47.85 365.4,49.85 C365.6,49.85 365.75,49.3 366,49.15 C366.1,49.1 366.5,49.4 366.5,49.4 L367.1,48.4 L367.5,48.4 L367.788889,47.7259259 C367.855556,47.5777778 367.916667,47.45 367.95,47.4 C368.3,47 368.95,46.8 368.95,46.8 L369.24392,46.1389124 C369.477424,45.632133 369.797368,44.9815789 370,44.75 L370.34375,44.14375 C370.653125,43.609375 370.85,43.3 370.85,43.3 L371.086186,40.2106867 C371.165789,39.0950139 371.257895,37.7289474 371.35,36.2 C372.45,35.7 373.65,34.95 374.9,34.15 C377.5,37.2 381.8,44.55 382.95,49.05 L383.4,49.55 L383.840816,49.4516035 C384.171429,49.3816327 384.6,49.3 384.8,49.3 C385.137679,49.2517601 385.661526,48.2726848 385.697988,48.203814 Z M393.9,39.15 L394.046502,38.2003429 C394.230864,36.9592593 394.455556,35.2611111 394.65,33.2 L395.4048,33.015 C397.6755,32.448 399.93,31.8 400.2,31.8 L400.427427,31.7134975 C401.226531,31.395805 402.7,30.7 402.7,30.7 L403.05,30.1 L404.85,29.65 L404.8,29.15 L406.45,28.1 L405.8,28.05 L407.35,27.2 L407.55,26 L407.681998,25.7354347 C407.798521,25.489645 407.95,25.1346154 407.95,24.95 L407.353387,24.9446164 C404.50327,24.9425684 399.496552,25.237931 395.4,25.75 L395.5168,24.3036 C395.572,23.574 395.62,22.83 395.65,22.05 C395.65,21.65 395.7,21.25 395.7,20.85 L404.362707,19.455782 C404.989509,19.357845 405.384783,19.3 405.45,19.3 L405.5873,19.2491 C406.13,19.0385 407.75,18.35 407.75,18.35 L407.8,17.75 L409.45,16.9 L408.45,16.85 L409.022681,16.4422963 C409.274889,16.2597778 409.53,16.07 409.6,16 C410.25,15.3 411.15,14.9 411.15,14.9 L411.139978,14.6070882 C411.133418,14.2979592 411.135714,13.825 411.2,13.6 L407.254256,13.5406524 C402.41174,13.48422 395.122,13.482 391.2,14 C389.2,13.8 387.25,14.6 387.25,14.6 C388.15,17.8 387.9,32.85 387.9,41.4 C387.525,41.525 387.219444,41.65 386.983333,41.775 L386.85,41.85 C384.35,43.15 387.2,49.7 388.75,48.95 C398.8,44.05 409.4,41.7 409.9,41.7 C410.5,41.4692308 410.759172,40.8550296 411.464042,40.25066 L411.65,40.1 C412.45,39.45 413.85,38.9 413.85,38.9 L412.45,38.75 L414.35,37.85 L414.6,37.25 L414.846296,37.0037037 C415.127778,36.7111111 415.55,36.2333333 415.55,36 C409.8,34.9 400.65,36.95 393.9,39.15 Z M410.9,14.8 C409,16.75 410.7,21.95 412.35,22.7 C413.6,22.3 414.85,22.05 416.1,21.8 L416.184433,23.0304109 C416.482986,27.6923611 416.6625,33.9333333 416.8,39.25 C413.25,38.3 410.8,36.35 410.8,35 C410.8,33.2 409.95,34.95 409.95,34.95 C409.95,42.4 413.65,45.5 417,46.75 L417.052941,48.2605638 C417.085294,49.0621107 417.117647,49.6235294 417.15,49.85 C417.25,49.85 417.6,49.25 417.6,49.25 L418.15,49.4 L418.7,48.05 L419.6,48.1 L419.9,47.45 L420.61875,47.51875 C420.85,47.5375 421.075,47.55 421.3,47.55 L421.904426,47.5400608 C427.09864,47.3764 440.602,45.082 440.65,32.65 C440.8,8.85 412.75,12.75 410.9,14.8 Z M421.45,39.8 L421,39.8 L421.45,33.45 C421.45,33.45 421.4,36.8 421.45,39.8 Z M436.45,30.9 C436.2,34.7 428.65,39.25 422.35,39.75 L422.467205,37.1716379 C422.652479,32.8433884 422.868182,26.6772727 422.95,21.85 C430.65,23.05 436.65,27.7 436.45,30.9 Z M485.306404,22.8243656 L485.293419,21.6271141 C485.27112,17.7717172 485.410606,16.0181818 484.8,14.75 C483.65,12.45 478.65,13.15 476.65,14.4 L476.651852,14.7185185 C476.655556,14.9444444 476.666667,15.2 476.7,15.5 L476.42799,16.0477042 C474.918305,19.1063099 471.631633,26.0561224 469.05,33.05 L468.622168,31.4225586 C467.546875,27.3804687 465.95,21.6875 464.2,15.65 C463.5,13.35 460.55,12.9 457.85,13.45 C455.8,12.95 453.8,13.65 453.8,13.65 C453.9,14.05 453.95,14.55 454,15.15 L453.96875,15.175 C453.95,15.1875 453.925,15.2 453.9,15.2 L453.96875,15.275 C453.9875,15.3 454,15.325 454,15.35 C454.7,22.8 453.65,43.05 453.05,49.2 C453.35,49.2 453.65,48.1 454.05,47.9 C454.5,47.7 455.3,48.35 455.3,48.35 L455.7,47.55 L457,47.15 L458.9,43.8 L459.55,43.9 L459.817172,42.2020537 C460.156317,39.9723543 460.762069,35.7431034 461.3,30.7 L462.5372,33.6768 C464.15,37.592 465.59,41.2 466.55,43.4 C467,47.9 471.7,46.2 472.05,45.15 L472.78863,43.1434402 C474.361224,38.8306122 476.442857,32.8857143 477.9,28.3 L478.067857,29.4999241 C479.141979,36.9423077 480.938462,45.1012821 483.5,49.75 C483.65,49.7 483.6,49.25 483.75,49.2 C484,49.05 484.55,49.15 484.55,49.15 L484.65,48 L485.3,47.9 L485.7,46.4 L485.9,45.15 L486.4,45.05 L486.9,43.25 L486.721838,41.9419692 C486.336129,38.9683878 485.447082,31.2986298 485.306404,22.8243656 L485.306404,22.8243656 Z M493.7,39.15 L493.846502,38.2003429 C494.030864,36.9592593 494.255556,35.2611111 494.45,33.2 L495.2048,33.015 C497.4755,32.448 499.73,31.8 500,31.8 L500.227427,31.7134975 C501.026531,31.395805 502.5,30.7 502.5,30.7 L502.85,30.1 L504.65,29.65 L504.6,29.15 L506.25,28.1 L505.6,28.05 L507.15,27.2 L507.35,26 L507.481998,25.7354347 C507.598521,25.489645 507.75,25.1346154 507.75,24.95 L507.153387,24.9446164 C504.30327,24.9425684 499.296552,25.237931 495.2,25.75 L495.3168,24.3036 C495.372,23.574 495.42,22.83 495.45,22.05 C495.45,21.65 495.5,21.25 495.5,20.85 L504.162707,19.455782 C504.789509,19.357845 505.184783,19.3 505.25,19.3 L505.3873,19.2491 C505.93,19.0385 507.55,18.35 507.55,18.35 L507.6,17.75 L509.25,16.9 L508.25,16.85 L508.822681,16.4422963 C509.074889,16.2597778 509.33,16.07 509.4,16 C510.05,15.3 510.95,14.9 510.95,14.9 L510.939978,14.6070882 C510.933418,14.2979592 510.935714,13.825 511,13.6 L507.054256,13.5406524 C502.21174,13.48422 494.922,13.482 491,14 C489,13.8 487.05,14.6 487.05,14.6 C487.95,17.8 487.7,32.85 487.7,41.4 C487.325,41.525 487.019444,41.65 486.783333,41.775 L486.65,41.85 C484.15,43.15 487,49.7 488.55,48.95 C498.6,44.05 509.2,41.7 509.7,41.7 C510.3,41.4692308 510.559172,40.8550296 511.264042,40.25066 L511.45,40.1 C512.25,39.45 513.65,38.9 513.65,38.9 L512.25,38.75 L514.15,37.85 L514.4,37.25 L514.646296,37.0037037 C514.927778,36.7111111 515.35,36.2333333 515.35,36 C509.6,34.9 500.45,36.95 493.7,39.15 Z M507.9,36.65 C507.85,38.8 508.8,40.6 511.1,40.2 C515.4,39.4 521.25,38.75 526.4,40.2 L526.85,40.5 L527.57817,38.7345308 C527.607785,38.6600346 527.632353,38.5970588 527.65,38.55 L527.770139,38.7729167 C527.961111,39.1375 528.1,39.45 528.1,39.45 L528.65,39 L529.1,39.25 L529.65,39.6 L530,39.05 L530.42599,39.4960628 C530.604734,39.6795858 530.776923,39.85 530.8,39.85 C526.85,29.35 525.35,20.35 524.9,17.15 C524.55,14.85 522.7,14.2 520.75,14.25 C519.6,13.45 517.3,13.3 513.2,13.9 C512.1,23 509.65,30.15 507.3,35.95 C507.6,35.95 507.75,36.3 507.9,36.65 Z M515.95,32.1 C517,30.05 518,27.9 518.9,25.6 C519.8,28 520.8,30.55 521.9,33.1 C520.1,32.6 518,32.2 515.95,32.1 Z M530.1,45.05 L530.55,44.95 L529.85,44.1 L529.937037,44.1351852 C530.017284,44.1660494 530.123251,44.2020576 530.117764,44.1746228 L530.1,44.15 C528.55,41.45 512.75,40.1 507.5,43.15 C506.05,46.4 507.05,51.2 510.55,50.05 C514.7,48.7 524.45,47.55 529.8,48.3 L530.25,48.55 L530.778883,46.5751577 C530.787024,46.5458478 530.794118,46.5205882 530.8,46.5 C530.9,46.15 530.1,45.05 530.1,45.05 Z M541.2,13.4 C539.4,12.15 537.1,12.5 535.85,12.85 C535.6,12.95 535.45,13.1 535.3,13.25 C531.9,13.25 528.85,13.35 526.35,13.7 C523.65,14.1 523.75,22.3 527.95,22.2 L535.85,21.75 L535.85,21.75 L535.937156,24.0205171 C536.294484,34.4054895 536.267442,48.3081395 536.5,49.75 C536.7,49.7 537.15,48 537.15,48 L537.6,49.25 L538.25,48.25 L538.65,48.25 L538.757533,47.9444697 C538.845949,47.7031179 538.971165,47.3848202 539.062927,47.247178 L539.1,47.2 C539.45,46.75 539.7,47.15 539.7,47.15 L540.5,45.35 L540.9,45.4 L542,42.95 L542.3105,40.1933 C542.741,36.176 543.49,28.42 543.7,21.35 L545.136488,21.2770233 C546.854321,21.1858025 548.716667,21.0777778 550.7,21 C555.05,19.6 556.65,16.25 556.85,14.4 L552.480841,14.0767844 C548.61157,13.7966942 544.8,13.5454545 541.2,13.4 Z M582.65,12.25 L582.486594,12.2527226 C580.155996,12.3187365 564.771855,13.6092495 564.070646,18.734233 L564.05,18.95 C564.05,18.95 563.5,18.75 563.25,23.1 C562.75,31.75 584.45,33.15 584.2,37.5 C584.05,39.9 565.25,45.75 566.15,30.3 L565.9,29.7 L565.1,30.6 L564.970911,31.3705688 C564.805078,32.4212891 564.534375,34.365625 564.5,36.05 C564.45,33.15 564.65,31.15 564.65,31.15 L564.582618,31.3648665 C564.384741,32.0247195 563.807434,34.1638869 563.6187,37.2191685 L563.6,37.55 C563.35,41.45 567.85,48.6 574.75,48.6 L575.293192,48.5957492 C581.972403,48.4897161 587.864474,46.3565789 588.4,37.35 C589.1,26.05 570.45,23.1 570.55,22.2 C570.55,21.85 578.45,19.35 584.35,19.35 C587.05,14.7 582.65,12.25 582.65,12.25 Z M586.55,36.65 C586.5,38.8 587.45,40.6 589.75,40.2 C594.05,39.4 599.9,38.75 605.05,40.2 L605.5,40.5 L606.22817,38.7345308 C606.257785,38.6600346 606.282353,38.5970588 606.3,38.55 L606.420139,38.7729167 C606.611111,39.1375 606.75,39.45 606.75,39.45 L607.3,39 L607.75,39.25 L608.3,39.6 L608.65,39.05 L609.07599,39.4960628 C609.254734,39.6795858 609.426923,39.85 609.45,39.85 C605.5,29.35 604,20.35 603.55,17.15 C603.2,14.85 601.35,14.2 599.4,14.25 C598.25,13.45 595.95,13.3 591.85,13.9 C590.75,23 588.3,30.15 585.95,35.95 C586.25,35.95 586.4,36.3 586.55,36.65 Z M594.6,32.1 C595.65,30.05 596.65,27.9 597.55,25.6 C598.45,28 599.45,30.55 600.55,33.1 C598.75,32.6 596.65,32.2 594.6,32.1 Z M608.75,45.05 L609.2,44.95 L608.5,44.1 L608.587037,44.1351852 C608.667284,44.1660494 608.773251,44.2020576 608.767764,44.1746228 L608.75,44.15 C607.2,41.45 591.4,40.1 586.15,43.15 C584.7,46.4 585.7,51.2 589.2,50.05 C593.35,48.7 603.1,47.55 608.45,48.3 L608.9,48.55 L609.428883,46.5751577 C609.437024,46.5458478 609.444118,46.5205882 609.45,46.5 C609.55,46.15 608.75,45.05 608.75,45.05 Z M619.85,13.4 C618.05,12.15 615.75,12.5 614.5,12.85 C614.25,12.95 614.1,13.1 613.95,13.25 C610.55,13.25 607.5,13.35 605,13.7 C602.3,14.1 602.4,22.3 606.6,22.2 L614.5,21.75 L614.5,21.75 L614.587156,24.0205171 C614.944484,34.4054895 614.917442,48.3081395 615.15,49.75 C615.35,49.7 615.8,48 615.8,48 L616.25,49.25 L616.9,48.25 L617.3,48.25 L617.407533,47.9444697 C617.495949,47.7031179 617.621165,47.3848202 617.712927,47.247178 L617.75,47.2 C618.1,46.75 618.35,47.15 618.35,47.15 L619.15,45.35 L619.55,45.4 L620.65,42.95 L620.9605,40.1933 C621.391,36.176 622.14,28.42 622.35,21.35 L623.786488,21.2770233 C625.504321,21.1858025 627.366667,21.0777778 629.35,21 C633.7,19.6 635.3,16.25 635.5,14.4 L631.130841,14.0767844 C627.26157,13.7966942 623.45,13.5454545 619.85,13.4 Z M627.05,25.7 C626.9,18.75 628.5,14.55 629.05,14.3 C631.1,13.35 635.05,15.7 634.8,16.75 C631.45,30.6 636,32.65 636.55,32.7 C637.5,32.8 641.15,30.65 641.15,24.85 L641.144,24.1116998 C641.039322,17.7643306 639.6,16 639.6,16 L639.4,15.95 L639.5053,15.9122 C639.646,15.8555 639.87,15.74 639.8,15.6 L639.660933,15.4727405 C639.581633,15.3969388 639.5,15.3071429 639.5,15.25 C639.5,15.1 639.6,14.75 640.1,14.55 C642.65,13.45 647.05,16.45 646.95,25.15 C646.85,32.55 643.15,38.8 637.35,38.7 C630.85,38.6 627.15,31.05 627.05,25.7 Z M628.15,42 C633.2,39.05 644.6,40.05 646.1,42.7 C646.15,42.75 645.85,42.65 645.85,42.65 L646.5,43.45 L646.1,43.55 L646.223438,43.7195313 C646.44375,44.03125 646.875,44.6875 646.8,44.95 C646.65,45.3 646.25,46.95 646.25,46.95 L645.8,46.7 C640.6,46 635.15,47.4 631.05,48.7 C627.7,49.8 626.75,45.15 628.15,42 Z M670.349989,47.2000179 L670.507017,47.3971607 C670.538987,47.4349314 670.571521,47.471521 670.6,47.5 C671.136061,45.7681116 669.937753,41.1116018 669.501176,39.5323267 L669.350032,39.0000513 C669.359394,39.0149197 671.399312,42.260668 671.1,46.9 C671.8,43.85 670.95,39.6 669.05,36.15 C672.7,34.55 675.7,31.75 675.75,26.75 C675.9,7.45 648.05,13.85 646.3,15.5 C644.55,17.1 646.1,21.35 647.7,21.95 C648.75,21.7 649.75,21.5 650.75,21.35 L650.923077,24.6810196 C651.015385,26.5573964 651.107692,28.5692308 651.2,30.6 C649.45,29.9 648.3,29 648.05,28.25 C647.8,29.35 648.1,31.2 649.05,33.1 C648.55,32.65 647.8,30.8 647.55,29.45 C647.4,30.1 647.7,31.3 647.75,31.5 C648.45,33.85 649.8,35.4 651.35,36.35 L651.613963,45.0771016 C651.697059,47.5468281 651.773529,49.2666667 651.85,49.7 C652.05,49.7 652.2,49.15 652.45,49.05 C652.55,49 652.9,49.25 652.9,49.25 L653.5,48.3 L653.9,48.35 L654.0625,47.90625 C654.15,47.675 654.25,47.425 654.3,47.35 C654.65,46.9 655.25,46.7 655.25,46.7 L655.502898,46.1526149 C655.712946,45.7055127 656.007013,45.0980881 656.196485,44.7847308 L656.614207,44.1102519 C656.911778,43.6226667 657.1,43.3 657.1,43.3 L657.45,38.15 L657.45,38.15 L657.75,38.15 C658.8,38.15 660.4,38.1 662.2,37.85 C664.4,40.65 666.7,44.15 667.7,48.05 L668.15,48.55 L668.938156,48.3596028 C669.146429,48.3112245 669.342857,48.2678571 669.45,48.25 C669.749266,48.2001223 670.347067,47.2048854 670.349989,47.2000179 Z M671.85,25.35 C671.6,28.65 663.85,31.8 657.8,31.85 C658,28.75 658.15,25.4 658.2,22.25 L658.198148,21.6185185 C658.194444,21.2111111 658.183333,20.8333333 658.15,20.5 C667.05,20.15 672.05,22.55 671.85,25.35 Z M675.15,14.8 C673.25,16.75 674.95,21.95 676.6,22.7 C677.85,22.3 679.1,22.05 680.35,21.8 L680.434433,23.0304109 C680.732986,27.6923611 680.9125,33.9333333 681.05,39.25 C677.5,38.3 675.05,36.35 675.05,35 C675.05,33.2 674.2,34.95 674.2,34.95 C674.2,42.4 677.9,45.5 681.25,46.75 L681.302941,48.2605638 C681.335294,49.0621107 681.367647,49.6235294 681.4,49.85 C681.5,49.85 681.85,49.25 681.85,49.25 L682.4,49.4 L682.95,48.05 L683.85,48.1 L684.15,47.45 L684.86875,47.51875 C685.1,47.5375 685.325,47.55 685.55,47.55 L686.154426,47.5400608 C691.34864,47.3764 704.852,45.082 704.9,32.65 C705.05,8.85 677,12.75 675.15,14.8 Z M685.7,39.8 L685.25,39.8 L685.7,33.45 C685.7,33.45 685.65,36.8 685.7,39.8 Z M700.7,30.9 C700.45,34.7 692.9,39.25 686.6,39.75 L686.717205,37.1716379 C686.902479,32.8433884 687.118182,26.6772727 687.2,21.85 C694.9,23.05 700.9,27.7 700.7,30.9 Z M703.75,36.65 C703.7,38.8 704.65,40.6 706.95,40.2 C711.25,39.4 717.1,38.75 722.25,40.2 L722.7,40.5 L723.42817,38.7345308 C723.457785,38.6600346 723.482353,38.5970588 723.5,38.55 L723.620139,38.7729167 C723.811111,39.1375 723.95,39.45 723.95,39.45 L724.5,39 L724.95,39.25 L725.5,39.6 L725.85,39.05 L726.27599,39.4960628 C726.454734,39.6795858 726.626923,39.85 726.65,39.85 C722.7,29.35 721.2,20.35 720.75,17.15 C720.4,14.85 718.55,14.2 716.6,14.25 C715.45,13.45 713.15,13.3 709.05,13.9 C707.95,23 705.5,30.15 703.15,35.95 C703.45,35.95 703.6,36.3 703.75,36.65 Z M711.8,32.1 C712.85,30.05 713.85,27.9 714.75,25.6 C715.65,28 716.65,30.55 717.75,33.1 C715.95,32.6 713.85,32.2 711.8,32.1 Z M725.95,45.05 L726.4,44.95 L725.7,44.1 L725.787037,44.1351852 C725.867284,44.1660494 725.973251,44.2020576 725.967764,44.1746228 L725.95,44.15 C724.4,41.45 708.6,40.1 703.35,43.15 C701.9,46.4 702.9,51.2 706.4,50.05 C710.55,48.7 720.3,47.55 725.65,48.3 L726.1,48.55 L726.628883,46.5751577 C726.637024,46.5458478 726.644118,46.5205882 726.65,46.5 C726.75,46.15 725.95,45.05 725.95,45.05 Z M746.300015,48.1501426 L747.097853,53.4443025 C747.09927,53.451022 747.1,53.4530214 747.1,53.45 C747.15,52.85 747.25,52.2 747.35,51.45 C745.8,36.4 751.25,18.8 751.35,18.2 L751.355017,18.1050235 C751.373607,17.3354516 751.023256,14.1767442 747.4,13.7 L747.053306,13.6619772 C745.72474,13.5426038 743.123529,13.6029412 742.85,15.7 C742.8,16 742.8,16.25 742.75,16.55 C739.55,21.25 733.5,34.35 732.7,34.25 L732.652995,33.3343233 C732.043764,20.5261493 733.764863,14.668679 727.813259,13.7793292 L727.6,13.75 C725.15,13.4 723.7,14 723.7,15.9 L723.771279,15.9546882 C723.920118,16.0748521 724.269231,16.3884615 724.5,16.85 C727.6,22.9 722.25,45.6 732.05,46.9 C733.35,47.05 734.55,47.05 735.25,46.5 C736.35,45.7 737.9,40.75 740.2,34.65 C739.55,43.15 740.05,52.6 744.15,60.65 C744.45,61.25 745.4,60.95 746.1,60.5 C746.25,60.4 746.5,59.85 746.5,59.65 C746.65,59.75 746.75,59.9 746.75,59.8 L746.728125,59.5382812 C746.690625,59.184375 746.625,58.5 746.7,57 L746.601968,55.6466435 C746.600694,55.6243056 746.6,55.6083333 746.6,55.6 L746.613073,55.6511645 C746.649587,55.8293388 746.75,56.3909091 746.75,56.35 L746.84,55.2952 L746.84,55.2952 L746.9,54.5 C746.949862,54.400276 746.303583,48.184456 746.300015,48.1501426 Z M770.1,12.95 L770.29011,13.0685424 C771.104992,13.6092727 774.156364,15.9918182 771.8,20.05 C765.9,20.05 758,22.55 758,22.9 C757.9,23.8 776.55,26.75 775.85,38.05 C775.3,47.3 769.1,49.3 762.2,49.3 C755.407813,49.3 750.941211,42.3716919 751.041751,38.4351532 L751.05,38.25 C751.204286,35.2414286 751.745388,33.066 751.984688,32.2287009 L752.1,31.85 C752.1,31.85 751.9,33.85 751.95,36.75 L751.964978,36.2850464 C752.066602,33.9367187 752.55,31.3 752.55,31.3 L753.35,30.4 L753.6,31 C752.7,46.45 771.5,40.6 771.65,38.2 C771.9,33.85 750.2,32.45 750.7,23.8 L750.753748,22.9892593 C751.020889,19.4757778 751.5,19.65 751.5,19.65 C751.8,14.2 768.45,12.95 770.1,12.95 Z" id="SmokedMeatSaturdays"></path>
        </g>
    </g>
</svg>